<?xml version="1.0" encoding="iso-8859-1"?>
<!-- Generator: Adobe Illustrator 24.1.2, SVG Export Plug-In . SVG Version: 6.00 Build 0)  -->
<svg version="1.1" id="Layer_1" xmlns="http://www.w3.org/2000/svg" xmlns:xlink="http://www.w3.org/1999/xlink" x="0px" y="0px"
	 viewBox="0 0 216 72" style="enable-background:new 0 0 216 72;" xml:space="preserve">
<g>
	<path class="lines" d="M36.597,48.327c-0.241-0.241-0.414-0.527-0.519-0.858c-0.105-0.331-0.354-0.602-0.745-0.813
		c-0.06-0.451-0.143-0.971-0.248-1.558c-0.105-0.587-0.211-1.189-0.316-1.806s-0.181-1.234-0.226-1.851s-0.023-1.181,0.068-1.693
		c0.06-0.271,0.158-0.527,0.293-0.768s0.271-0.474,0.406-0.7s0.241-0.459,0.316-0.7c0.075-0.241,0.083-0.482,0.023-0.722
		c0.181-0.03,0.293-0.128,0.339-0.293c0.045-0.166,0.188-0.218,0.429-0.158c0.211-0.662,0.436-1.279,0.677-1.851
		c0.241-0.572,0.497-1.129,0.768-1.671c0.271-0.542,0.549-1.091,0.835-1.648c0.286-0.557,0.549-1.181,0.79-1.874
		c-0.512-0.482-0.88-1.001-1.106-1.558s-0.399-1.121-0.519-1.693c-0.12-0.572-0.211-1.151-0.271-1.738
		c-0.06-0.587-0.181-1.181-0.361-1.783c0.361-0.542,0.798-0.986,1.309-1.332c0.512-0.346,1.076-0.632,1.693-0.858
		s1.287-0.406,2.009-0.542c0.722-0.135,1.49-0.293,2.303-0.474c1.445-0.451,2.739-0.805,3.883-1.061
		c1.144-0.256,2.257-0.467,3.341-0.632c1.084-0.166,2.212-0.316,3.386-0.451c1.174-0.135,2.528-0.339,4.063-0.61
		c0.03,0.09,0.083,0.135,0.158,0.135s0.173,0,0.293,0c0.09,0.211,0.256,0.316,0.497,0.316c0-0.09-0.008-0.173-0.023-0.248
		c-0.015-0.075-0.023-0.143-0.023-0.203c0.06,0,0.143,0.015,0.248,0.045c0.105,0.03,0.196,0.06,0.271,0.09s0.143,0.023,0.203-0.023
		c0.06-0.045,0.075-0.143,0.045-0.293c0.361,0.632,0.828,1.151,1.4,1.558c0.572,0.406,1.204,0.76,1.896,1.061
		c0.03,0.271,0.038,0.467,0.023,0.587c-0.015,0.12-0.038,0.233-0.068,0.339c-0.03,0.105-0.045,0.226-0.045,0.361
		c0,0.135,0.03,0.324,0.09,0.564c-0.482,0.813-1.031,1.445-1.648,1.896s-1.272,0.798-1.964,1.038
		c-0.692,0.241-1.422,0.421-2.19,0.542s-1.55,0.248-2.348,0.384c-0.798,0.135-1.603,0.324-2.415,0.564
		c-0.813,0.241-1.61,0.602-2.393,1.084c-0.241-0.09-0.459-0.128-0.655-0.113c-0.196,0.015-0.399,0.053-0.61,0.113
		c-0.211,0.06-0.444,0.12-0.7,0.181c-0.256,0.06-0.564,0.06-0.926,0c-0.241,0.211-0.519,0.361-0.835,0.451
		c-0.316,0.09-0.64,0.181-0.971,0.271c0.15,0.331,0.218,0.662,0.203,0.993c-0.015,0.331,0.023,0.617,0.113,0.858
		c1.264,0.12,2.664,0.113,4.199-0.023c1.535-0.135,3.04-0.233,4.515-0.293c0.03,0.15,0.015,0.256-0.045,0.316
		c-0.06,0.06-0.09,0.166-0.09,0.316c0.271,0.181,0.527,0.406,0.768,0.677c0.241,0.271,0.489,0.534,0.745,0.79
		c0.256,0.256,0.519,0.467,0.79,0.632s0.587,0.233,0.948,0.203c0.15,0.301,0.256,0.617,0.316,0.948
		c0.06,0.331,0.015,0.677-0.135,1.038c-0.602,0.391-1.189,0.79-1.761,1.196c-0.572,0.406-1.166,0.775-1.783,1.106
		c-0.617,0.331-1.287,0.602-2.009,0.813c-0.722,0.211-1.505,0.301-2.348,0.271c-0.15,0-0.278,0-0.384,0
		c-0.105,0-0.233-0.06-0.384-0.181c-0.301,0.15-0.7,0.203-1.196,0.158c-0.497-0.045-0.911,0.008-1.242,0.158
		c-0.421-0.15-0.911-0.226-1.467-0.226c-0.557,0-1.046-0.075-1.467-0.226c-0.542,0.783-1.053,1.603-1.535,2.461
		c-0.482,0.858-0.903,1.768-1.264,2.732c1.234,0.181,2.257,0.256,3.07,0.226c0.813-0.03,1.58-0.09,2.303-0.181
		c0.722-0.09,1.467-0.181,2.235-0.271s1.708-0.12,2.822-0.09c0.752-0.361,1.618-0.61,2.596-0.745s1.889-0.339,2.732-0.61
		c0.301,0.09,0.557,0.263,0.768,0.519c0.211,0.256,0.414,0.512,0.61,0.768c0.196,0.256,0.399,0.474,0.61,0.655
		c0.211,0.181,0.482,0.241,0.813,0.181c0.15,0.15,0.248,0.331,0.293,0.542c0.045,0.211,0.09,0.406,0.135,0.587
		c0.045,0.181,0.113,0.324,0.203,0.429c0.09,0.105,0.256,0.143,0.497,0.113c-0.572,1.174-1.212,2.077-1.919,2.709
		c-0.707,0.632-1.505,1.121-2.393,1.467c-0.888,0.346-1.881,0.602-2.98,0.768c-1.099,0.166-2.325,0.369-3.68,0.61
		c-0.331,0.06-0.61,0.053-0.835-0.023s-0.459-0.113-0.7-0.113c-0.843,0.15-1.844,0.301-3.002,0.451
		c-1.159,0.15-2.325,0.211-3.499,0.181c-1.174-0.03-2.303-0.181-3.386-0.451C38.222,49.501,37.319,49.019,36.597,48.327z"/>
	<path class="lines" d="M71.226,45.618c-0.301,0.241-0.482,0.549-0.542,0.926c-0.06,0.376-0.135,0.745-0.226,1.106
		c-0.09,0.361-0.248,0.67-0.474,0.926c-0.226,0.256-0.625,0.369-1.196,0.339c-0.12,0.15-0.143,0.241-0.068,0.271
		c0.075,0.03,0.143,0.166,0.203,0.406c-0.421-0.06-0.722-0.03-0.903,0.09c-0.181,0.12-0.406,0.211-0.677,0.271
		c-0.692-0.211-1.272-0.594-1.738-1.151c-0.467-0.557-0.873-1.166-1.219-1.829c-0.346-0.662-0.647-1.339-0.903-2.032
		c-0.256-0.692-0.519-1.294-0.79-1.806c0-0.12,0.053-0.173,0.158-0.158s0.203,0.023,0.293,0.023c-0.15-0.301-0.263-0.64-0.339-1.016
		s-0.218-0.685-0.429-0.926c0.873-1.866,1.806-3.815,2.799-5.847c0.993-2.032,1.994-4.094,3.002-6.185
		c1.008-2.092,2.017-4.199,3.025-6.321s1.979-4.206,2.912-6.253c0.843,0.301,1.663,0.655,2.461,1.061s1.528,0.88,2.19,1.422
		c0.662,0.542,1.227,1.166,1.693,1.874c0.467,0.707,0.775,1.512,0.926,2.415c-0.06,0.181-0.135,0.241-0.226,0.181
		c-0.09-0.06-0.166-0.03-0.226,0.09c0.15,0.181,0.233,0.309,0.248,0.384c0.015,0.075,0.008,0.15-0.023,0.226
		c-0.03,0.075-0.045,0.173-0.045,0.293s0.075,0.286,0.226,0.497c-0.15-0.03-0.256-0.008-0.316,0.068s-0.166,0.083-0.316,0.023
		c0.15,0.421,0.196,0.752,0.135,0.993c-0.06,0.241-0.15,0.459-0.271,0.655s-0.218,0.406-0.293,0.632s-0.053,0.534,0.068,0.926
		c-0.12,0-0.203,0.023-0.248,0.068s-0.083,0.098-0.113,0.158c-0.03,0.06-0.068,0.113-0.113,0.158
		c-0.045,0.045-0.128,0.053-0.248,0.023c0.09,0.783,0.12,1.573,0.09,2.37s-0.06,1.61-0.09,2.438s-0.03,1.678,0,2.551
		c0.03,0.873,0.15,1.776,0.361,2.709c1.294-0.752,2.34-1.731,3.138-2.935c0.798-1.204,1.43-2.543,1.896-4.018
		c0.467-1.475,0.828-3.055,1.084-4.741c0.256-1.686,0.519-3.401,0.79-5.147c0.331-0.331,0.594-0.737,0.79-1.219
		c0.196-0.482,0.361-0.978,0.497-1.49c0.135-0.512,0.271-1.031,0.406-1.558s0.324-1.001,0.564-1.422
		c0.542,0.06,1.001,0.218,1.377,0.474s0.73,0.542,1.061,0.858c0.331,0.316,0.677,0.61,1.038,0.88s0.813,0.451,1.354,0.542
		c0.421,0.602,0.813,1.181,1.174,1.738c0.361,0.557,0.602,1.181,0.722,1.874c-0.181,0.301-0.316,0.632-0.406,0.993
		c-0.09,0.361-0.188,0.722-0.293,1.084c-0.105,0.361-0.248,0.692-0.429,0.993c-0.181,0.301-0.436,0.557-0.768,0.768
		c-0.09,0.903-0.226,1.746-0.406,2.528s-0.346,1.55-0.497,2.303s-0.286,1.535-0.406,2.348s-0.166,1.701-0.135,2.664
		c-0.271,0.873-0.572,1.768-0.903,2.686c-0.331,0.918-0.572,1.768-0.722,2.551c-0.572,0.451-1.023,1.008-1.354,1.671
		s-0.677,1.324-1.038,1.987c-0.15,0.12-0.241,0.143-0.271,0.068c-0.03-0.075-0.166-0.128-0.406-0.158
		c0.03,0.271-0.023,0.444-0.158,0.519c-0.135,0.075-0.128,0.293,0.023,0.655c-0.512,0.241-0.963,0.557-1.354,0.948
		c-0.391,0.391-0.82,0.752-1.287,1.084c-0.467,0.331-1.008,0.549-1.625,0.655c-0.617,0.105-1.422-0.023-2.415-0.384
		c-1.475-1.084-2.799-2.333-3.973-3.747c-1.174-1.415-2.107-3.085-2.799-5.012c-0.301,0.09-0.527,0.286-0.677,0.587
		s-0.286,0.617-0.406,0.948c-0.12,0.331-0.241,0.632-0.361,0.903c-0.12,0.271-0.301,0.406-0.542,0.406
		c-0.06,0.271-0.173,0.519-0.339,0.745c-0.166,0.226-0.324,0.451-0.474,0.677s-0.263,0.474-0.339,0.745
		C71.038,44.986,71.075,45.287,71.226,45.618z"/>
	<path class="lines" d="M95.697,24.398c-0.03-0.241-0.083-0.459-0.158-0.655s-0.158-0.414-0.248-0.655c-0.15-0.361-0.286-0.752-0.406-1.174
		s-0.181-0.918-0.181-1.49c0.06-0.301,0.135-0.519,0.226-0.655c0.09-0.135,0.181-0.248,0.271-0.339l0.181-0.813h0.677
		c0.241,0.03,0.489,0.045,0.745,0.045s0.504,0,0.745,0c1.144,0,2.318-0.045,3.522-0.135c1.204-0.09,2.438-0.196,3.702-0.316
		c1.385-0.181,2.875-0.316,4.47-0.406c0.15-0.331,0.248-0.542,0.293-0.632s0.098-0.196,0.158-0.316l0.497-0.271
		c0.692-0.03,1.174,0.053,1.445,0.248c0.271,0.196,0.482,0.384,0.632,0.564c0.783-0.06,1.58-0.143,2.393-0.248
		c0.813-0.105,1.655-0.218,2.528-0.339c1.204-0.15,2.423-0.301,3.657-0.451c1.234-0.15,2.438-0.226,3.612-0.226
		c0.512,0,0.993,0.015,1.445,0.045s0.888,0.075,1.309,0.135l0.542,0.406c0.12,0.211,0.271,0.406,0.451,0.587
		c0.181,0.181,0.391,0.361,0.632,0.542c0.451,0.361,0.895,0.813,1.332,1.354c0.436,0.542,0.594,1.339,0.474,2.393l-0.226,0.451
		c-0.12,0.12-0.271,0.241-0.451,0.361l-0.451,0.587h-0.497c-0.301,0-0.527,0.023-0.677,0.068s-0.331,0.113-0.542,0.203
		c-0.12,0.06-0.256,0.113-0.406,0.158s-0.316,0.098-0.497,0.158c-0.331-0.03-0.587-0.045-0.768-0.045c-0.181,0-0.391,0-0.632,0
		c-0.903,0-1.881,0.06-2.935,0.181c-1.053,0.12-2.077,0.256-3.07,0.406c-0.722,0.09-1.415,0.173-2.077,0.248
		c-0.662,0.075-1.264,0.143-1.806,0.203c-0.301,0.783-0.572,1.475-0.813,2.077c-0.241,0.602-0.497,1.204-0.768,1.806
		c-0.271,0.602-0.527,1.212-0.768,1.829c-0.241,0.617-0.467,1.302-0.677,2.054c-0.361,0.542-0.662,1.061-0.903,1.558
		c-0.241,0.497-0.436,1.061-0.587,1.693c-0.451,0.512-0.775,1.069-0.971,1.671c-0.196,0.602-0.369,1.114-0.519,1.535l-0.181,0.677
		c-0.211,0.211-0.339,0.376-0.384,0.497c-0.045,0.12-0.128,0.256-0.248,0.406c-0.09,0.391-0.211,0.768-0.361,1.129
		c-0.06,0.15-0.12,0.309-0.181,0.474c-0.06,0.166-0.075,0.293-0.045,0.384c-0.06,0.331-0.15,0.587-0.271,0.768
		c0,0.181-0.015,0.361-0.045,0.542c-0.03,0.181-0.06,0.361-0.09,0.542c-0.06,0.211-0.105,0.399-0.135,0.564
		c-0.03,0.166-0.015,0.324,0.045,0.474c0.09,0.12,0.181,0.241,0.271,0.361c0.09,0.12,0.166,0.271,0.226,0.451
		c0.06,0.06,0.135,0.105,0.226,0.135s0.166,0.075,0.226,0.135c0.241,0.211,0.467,0.331,0.677,0.361l0.451,0.542
		c0.181,1.084,0.015,1.926-0.497,2.528c-0.542,0.692-1.445,1.038-2.709,1.038l-0.632-0.045c-0.211-0.211-0.331-0.346-0.361-0.406
		c-0.271-0.12-0.497-0.218-0.677-0.293s-0.346-0.218-0.497-0.429c-0.06-0.06-0.135-0.098-0.226-0.113
		c-0.09-0.015-0.166-0.053-0.226-0.113c-0.301-0.09-0.542-0.196-0.722-0.316l-0.497-0.271c0.03-0.301,0.045-0.512,0.045-0.632
		c-0.241-0.331-0.429-0.692-0.564-1.084s-0.248-0.798-0.339-1.219c-0.09-0.331-0.173-0.632-0.248-0.903s-0.188-0.512-0.339-0.722
		c-0.06-2.107,0.135-3.875,0.587-5.305s0.948-2.822,1.49-4.176c0.301-0.722,0.587-1.46,0.858-2.212
		c0.271-0.752,0.512-1.52,0.722-2.303l0.497-0.497c0.211-0.181,0.346-0.286,0.406-0.316c0-0.391,0.075-0.775,0.226-1.151
		s0.316-0.76,0.497-1.151c0.12-0.241,0.233-0.482,0.339-0.722s0.173-0.451,0.203-0.632c-0.211,0-0.399,0.008-0.564,0.023
		c-0.166,0.015-0.339,0.038-0.519,0.068c-0.391,0.09-0.768,0.135-1.129,0.135c-0.271,0-0.467-0.015-0.587-0.045
		c-0.241,0.12-0.467,0.188-0.677,0.203c-0.211,0.015-0.421,0.023-0.632,0.023h-0.542h-0.542c-0.361,0-0.647,0.045-0.858,0.135
		c-0.421,0-0.692,0-0.813,0s-0.256,0-0.406,0h-0.542h-0.542c-0.241,0-0.512-0.023-0.813-0.068s-0.617-0.158-0.948-0.339
		l-0.316-0.361c-0.181-0.331-0.346-0.512-0.497-0.542l-0.497-0.135V24.398z"/>
	<path class="lines" d="M125.315,48.327c-0.241-0.241-0.414-0.527-0.519-0.858c-0.105-0.331-0.354-0.602-0.745-0.813
		c-0.06-0.451-0.143-0.971-0.248-1.558s-0.211-1.189-0.316-1.806c-0.105-0.617-0.181-1.234-0.226-1.851
		c-0.045-0.617-0.023-1.181,0.068-1.693c0.06-0.271,0.158-0.527,0.293-0.768s0.271-0.474,0.406-0.7s0.241-0.459,0.316-0.7
		c0.075-0.241,0.083-0.482,0.023-0.722c0.181-0.03,0.293-0.128,0.339-0.293c0.045-0.166,0.188-0.218,0.429-0.158
		c0.211-0.662,0.436-1.279,0.677-1.851c0.241-0.572,0.497-1.129,0.768-1.671c0.271-0.542,0.549-1.091,0.835-1.648
		c0.286-0.557,0.549-1.181,0.79-1.874c-0.512-0.482-0.88-1.001-1.106-1.558s-0.399-1.121-0.519-1.693
		c-0.12-0.572-0.211-1.151-0.271-1.738c-0.06-0.587-0.181-1.181-0.361-1.783c0.361-0.542,0.798-0.986,1.309-1.332
		c0.512-0.346,1.076-0.632,1.693-0.858s1.287-0.406,2.009-0.542c0.722-0.135,1.49-0.293,2.303-0.474
		c1.445-0.451,2.739-0.805,3.883-1.061c1.144-0.256,2.257-0.467,3.341-0.632c1.084-0.166,2.212-0.316,3.386-0.451
		c1.174-0.135,2.528-0.339,4.063-0.61c0.03,0.09,0.083,0.135,0.158,0.135c0.075,0,0.173,0,0.293,0
		c0.09,0.211,0.256,0.316,0.497,0.316c0-0.09-0.008-0.173-0.023-0.248c-0.015-0.075-0.023-0.143-0.023-0.203
		c0.06,0,0.143,0.015,0.248,0.045s0.196,0.06,0.271,0.09c0.075,0.03,0.143,0.023,0.203-0.023c0.06-0.045,0.075-0.143,0.045-0.293
		c0.361,0.632,0.828,1.151,1.4,1.558s1.204,0.76,1.896,1.061c0.03,0.271,0.038,0.467,0.023,0.587
		c-0.015,0.12-0.038,0.233-0.068,0.339c-0.03,0.105-0.045,0.226-0.045,0.361c0,0.135,0.03,0.324,0.09,0.564
		c-0.482,0.813-1.031,1.445-1.648,1.896s-1.272,0.798-1.964,1.038s-1.422,0.421-2.19,0.542c-0.768,0.12-1.55,0.248-2.348,0.384
		c-0.798,0.135-1.603,0.324-2.415,0.564c-0.813,0.241-1.61,0.602-2.393,1.084c-0.241-0.09-0.459-0.128-0.655-0.113
		c-0.196,0.015-0.399,0.053-0.61,0.113c-0.211,0.06-0.444,0.12-0.7,0.181c-0.256,0.06-0.564,0.06-0.926,0
		c-0.241,0.211-0.519,0.361-0.835,0.451c-0.316,0.09-0.64,0.181-0.971,0.271c0.15,0.331,0.218,0.662,0.203,0.993
		c-0.015,0.331,0.023,0.617,0.113,0.858c1.264,0.12,2.664,0.113,4.199-0.023c1.535-0.135,3.04-0.233,4.515-0.293
		c0.03,0.15,0.015,0.256-0.045,0.316c-0.06,0.06-0.09,0.166-0.09,0.316c0.271,0.181,0.527,0.406,0.768,0.677
		c0.241,0.271,0.489,0.534,0.745,0.79c0.256,0.256,0.519,0.467,0.79,0.632c0.271,0.166,0.587,0.233,0.948,0.203
		c0.15,0.301,0.256,0.617,0.316,0.948c0.06,0.331,0.015,0.677-0.135,1.038c-0.602,0.391-1.189,0.79-1.761,1.196
		c-0.572,0.406-1.166,0.775-1.783,1.106c-0.617,0.331-1.287,0.602-2.009,0.813c-0.722,0.211-1.505,0.301-2.348,0.271
		c-0.15,0-0.278,0-0.384,0s-0.233-0.06-0.384-0.181c-0.301,0.15-0.7,0.203-1.196,0.158c-0.497-0.045-0.911,0.008-1.242,0.158
		c-0.421-0.15-0.911-0.226-1.467-0.226c-0.557,0-1.046-0.075-1.467-0.226c-0.542,0.783-1.053,1.603-1.535,2.461
		c-0.482,0.858-0.903,1.768-1.264,2.732c1.234,0.181,2.257,0.256,3.07,0.226c0.813-0.03,1.58-0.09,2.303-0.181
		c0.722-0.09,1.467-0.181,2.235-0.271s1.708-0.12,2.822-0.09c0.752-0.361,1.618-0.61,2.596-0.745
		c0.978-0.135,1.889-0.339,2.732-0.61c0.301,0.09,0.557,0.263,0.768,0.519c0.211,0.256,0.414,0.512,0.61,0.768
		c0.196,0.256,0.399,0.474,0.61,0.655c0.211,0.181,0.482,0.241,0.813,0.181c0.15,0.15,0.248,0.331,0.293,0.542
		c0.045,0.211,0.09,0.406,0.135,0.587c0.045,0.181,0.113,0.324,0.203,0.429c0.09,0.105,0.256,0.143,0.497,0.113
		c-0.572,1.174-1.212,2.077-1.919,2.709s-1.505,1.121-2.393,1.467c-0.888,0.346-1.881,0.602-2.98,0.768s-2.325,0.369-3.68,0.61
		c-0.331,0.06-0.61,0.053-0.835-0.023c-0.226-0.075-0.459-0.113-0.7-0.113c-0.843,0.15-1.844,0.301-3.002,0.451
		s-2.325,0.211-3.499,0.181s-2.303-0.181-3.386-0.451C126.94,49.501,126.037,49.019,125.315,48.327z"/>
	<path class="lines" d="M152.585,45.979c-0.15,0.03-0.286-0.083-0.406-0.339c-0.12-0.256-0.256-0.504-0.406-0.745h0.497
		c-0.211-0.662-0.263-1.272-0.158-1.829s0.233-1.099,0.384-1.625s0.278-1.038,0.384-1.535c0.105-0.497,0.053-1.016-0.158-1.558
		c0.15,0.09,0.263,0.053,0.339-0.113c0.075-0.166,0.135-0.376,0.181-0.632c0.045-0.256,0.06-0.527,0.045-0.813
		c-0.015-0.286-0.038-0.519-0.068-0.7c0.391-0.933,0.7-1.896,0.926-2.89c0.226-0.993,0.429-1.979,0.61-2.957
		c0.181-0.978,0.384-1.926,0.61-2.844c0.226-0.918,0.519-1.783,0.88-2.596c0.421-0.06,0.865-0.008,1.332,0.158
		c0.467,0.166,0.775,0.369,0.926,0.61c0.933-0.722,1.761-1.595,2.483-2.619c0.722-1.023,1.452-2.024,2.19-3.002
		c0.737-0.978,1.573-1.844,2.506-2.596c0.933-0.752,2.092-1.204,3.476-1.354c0.722,0.512,1.535,1.061,2.438,1.648
		c0.903,0.587,1.64,1.317,2.212,2.19c0.241,0.15,0.474,0.309,0.7,0.474c0.226,0.166,0.459,0.324,0.7,0.474v0.677
		c0.421,0.391,0.775,0.85,1.061,1.377s0.542,1.084,0.768,1.671c0.226,0.587,0.444,1.181,0.655,1.783s0.451,1.159,0.722,1.671
		c-0.06,0.181-0.083,0.339-0.068,0.474c0.015,0.135,0.045,0.271,0.09,0.406c0.045,0.135,0.083,0.286,0.113,0.451
		c0.03,0.166,0.045,0.369,0.045,0.61c-0.12,1.595-0.64,2.882-1.558,3.86c-0.918,0.978-2.032,1.776-3.341,2.393
		s-2.701,1.144-4.176,1.58c-1.475,0.436-2.814,0.911-4.018,1.422c0,0.12,0.068,0.181,0.203,0.181c0.135,0,0.173,0.09,0.113,0.271
		c0.903,0.542,1.603,0.978,2.099,1.309c0.497,0.331,0.963,0.61,1.4,0.835c0.436,0.226,0.918,0.414,1.445,0.564
		c0.527,0.15,1.257,0.331,2.19,0.542c0.933,0.211,1.663,0.384,2.19,0.519c0.527,0.135,1.001,0.241,1.422,0.316
		c0.421,0.075,0.873,0.143,1.354,0.203c0.482,0.06,1.129,0.135,1.941,0.226c0.331,0.331,0.602,0.722,0.813,1.174
		c0.211,0.451,0.361,0.903,0.451,1.354c0.09,0.451,0.113,0.88,0.068,1.287c-0.045,0.406-0.173,0.73-0.384,0.971
		c0.03,0.12,0.113,0.173,0.248,0.158s0.278-0.008,0.429,0.023c-0.211,0.15-0.391,0.331-0.542,0.542s-0.301,0.421-0.451,0.632
		c-0.15,0.211-0.324,0.406-0.519,0.587c-0.196,0.181-0.444,0.286-0.745,0.316c-1.084,0.421-2.468,0.436-4.154,0.045
		c-1.686-0.391-3.838-1.084-6.456-2.077c-1.294-0.482-2.348-0.918-3.16-1.309c-0.813-0.391-1.52-0.775-2.122-1.151
		s-1.159-0.783-1.671-1.219c-0.512-0.436-1.099-0.956-1.761-1.558c-0.09,0.03-0.143,0.09-0.158,0.181s-0.068,0.15-0.158,0.181
		c-0.15,1.204-0.384,2.182-0.7,2.935s-0.775,1.52-1.377,2.303c-0.482-0.09-0.805-0.045-0.971,0.135
		c-0.166,0.181-0.369,0.346-0.61,0.497c-0.301,0.06-0.527,0.053-0.677-0.023s-0.286-0.158-0.406-0.248
		c-0.12-0.09-0.256-0.181-0.406-0.271c-0.15-0.09-0.391-0.12-0.722-0.09c-0.09-0.271-0.181-0.534-0.271-0.79
		c-0.09-0.256-0.331-0.369-0.722-0.339c0.09-0.271,0.12-0.504,0.09-0.7c-0.03-0.196-0.075-0.376-0.135-0.542
		s-0.113-0.339-0.158-0.519C152.472,46.431,152.495,46.22,152.585,45.979z M167.665,25.346c-0.391,0.572-0.828,1.091-1.309,1.558
		c-0.482,0.467-0.956,0.948-1.422,1.445c-0.467,0.497-0.88,1.038-1.242,1.625c-0.361,0.587-0.617,1.287-0.768,2.099
		c1.264-0.15,2.589-0.504,3.973-1.061c1.385-0.557,2.694-1.091,3.928-1.603c-0.15-1.114-0.542-2.009-1.174-2.686
		C169.019,26.046,168.357,25.587,167.665,25.346z"/>
</g>
<rect x="89.617" y="16" style="fill:none;" width="14.773" height="1.786"/>
</svg>
